<svg width="119" height="24" viewBox="0 0 119 24" fill="none" xmlns="http://www.w3.org/2000/svg">
<path d="M31.1367 22.8982H35.4857L27.0618 0.383057H23.8695L15.3141 22.8982H19.6346L21.3513 18.1989H29.4486L31.1367 22.8982ZM22.7533 14.3256L25.3856 7.09158L28.018 14.3256H22.7533Z" fill="white"/>
<path d="M46.0886 7.23398L42.5693 18.4837L39.0786 7.23398H34.7295L40.1372 22.8982H45.0299L50.4377 7.23398H46.0886Z" fill="white"/>
<path d="M52.6915 22.8982H56.7831V7.23398H52.6915V22.8982Z" fill="white"/>
<path d="M81.6552 18.6831C80.3677 19.1388 79.2804 19.452 78.3648 19.452C76.7339 19.452 75.8469 18.4837 75.8469 16.6325V11.0788H81.6838V7.23398H75.8469V2.96193H71.7554V7.23398H63.0709V11.0788H71.7554V16.8603C71.7554 21.3602 74.5022 23.2399 77.6495 23.2399C79.5379 23.2399 81.4835 22.5564 82.3419 21.9868L81.6552 18.6831Z" fill="white"/>
<path d="M92.0142 6.89222C87.4935 6.89222 83.8311 10.3383 83.8311 15.0661C83.8311 19.7653 87.4362 23.2399 92.0142 23.2399C96.6208 23.2399 100.226 19.7938 100.226 15.0661C100.226 10.3383 96.5635 6.89222 92.0142 6.89222ZM92.0142 10.7655C94.3032 10.7655 96.0771 12.5028 96.0771 15.0661C96.0771 17.6578 94.3032 19.3666 92.0142 19.3666C89.7252 19.3666 87.9512 17.6578 87.9512 15.0661C87.9512 12.5028 89.7252 10.7655 92.0142 10.7655Z" fill="white"/>
<path d="M119 22.8982L111.332 14.6958L118.514 7.23398H113.306L107.326 13.756V0.968311H103.235V22.8982H107.326V16.0629L113.764 22.8982H119Z" fill="white"/>
<path d="M52.2051 2.39235C52.2051 0.99681 53.321 0 54.7516 0C56.2395 0 57.2981 0.99681 57.2981 2.39235C57.2981 3.78788 56.2395 4.81317 54.7516 4.81317C53.321 4.81317 52.2051 3.78788 52.2051 2.39235Z" fill="white"/>
<path fill-rule="evenodd" clip-rule="evenodd" d="M18.4824 1.32043L16.3486 5.25788H2.18749L2.07818e-05 1.32044C6.92956e-06 1.32043 0 1.32043 0 1.32043C0 1.32043 5.38209e-06 1.32043 1.61416e-05 1.32043L0 1.3204H0.000144714C0.0282782 1.31405 4.15485 0.384033 9.24118 0.384033C14.3275 0.384033 18.4541 1.31405 18.4822 1.3204H18.4824V1.32043Z" fill="white"/>
<path d="M16.3486 5.25778C16.3486 5.51875 13.1802 5.81809 9.27188 5.81809C5.36352 5.81809 2.18748 5.58015 2.18748 5.25778C2.18748 5.25778 5.36352 4.68213 9.27188 4.68213C13.1802 4.68213 16.3486 5.25778 16.3486 5.25778Z" fill="#DDDDDD"/>
<path fill-rule="evenodd" clip-rule="evenodd" d="M16.3332 7.38398L14.0459 11.475H4.33656L2.14911 7.384C2.14908 7.38398 2.14906 7.38397 2.14906 7.38397C2.14906 7.38397 2.14907 7.38397 2.14909 7.38396L2.14907 7.38393H2.14917C2.16572 7.37745 4.15868 6.60107 9.24113 6.60107C14.3236 6.60107 16.3165 7.37745 16.3331 7.38393H16.3332L16.3332 7.38397C16.3332 7.38397 16.3332 7.38397 16.3332 7.38398Z" fill="white"/>
<path d="M14.0459 11.4739C14.0459 11.6996 11.9113 11.9585 9.27819 11.9585C6.64504 11.9585 4.33655 11.7538 4.33655 11.475C4.33655 11.475 6.64504 10.9761 9.27819 10.9761C11.9113 10.9761 14.0459 11.4739 14.0459 11.4739Z" fill="#DDDDDD"/>
<path fill-rule="evenodd" clip-rule="evenodd" d="M14.0458 13.2174C14.0459 13.2174 14.046 13.2173 14.046 13.2173C14.046 13.2173 14.046 13.2173 14.0459 13.2173L14.0459 13.2173H14.0458C14.0267 13.2106 12.6743 12.7415 9.24117 12.7415C5.808 12.7415 4.45562 13.2106 4.43657 13.2173H4.43634L4.43638 13.2173C4.43637 13.2173 4.43637 13.2173 4.43637 13.2173C4.43637 13.2173 4.43637 13.2173 4.43639 13.2173L6.69291 17.3159L11.728 17.3082L14.0458 13.2174Z" fill="white"/>
<path d="M11.728 17.3082C11.728 17.3858 10.6227 17.4744 9.25929 17.4744C7.89587 17.4744 6.6929 17.4117 6.6929 17.3159C6.6929 17.3159 7.89587 17.1367 9.25929 17.1367C10.6227 17.1367 11.728 17.3082 11.728 17.3082Z" fill="#DDDDDD"/>
<path d="M6.5087 18.7312H11.9122L9.90122 22.7608H8.48895L6.5087 18.7312Z" fill="white"/>
<path d="M9.90117 22.7604C9.90117 22.8344 9.59115 22.919 9.20873 22.919C8.82631 22.919 8.48889 22.8493 8.48889 22.7579C8.48889 22.7579 8.82631 22.5967 9.20873 22.5967C9.59115 22.5967 9.90117 22.7604 9.90117 22.7604Z" fill="#DDDDDD"/>
</svg>
