<svg width="19" height="17" viewBox="0 0 19 17" fill="none" xmlns="http://www.w3.org/2000/svg">
<path id="Vector" d="M9.50432 3.57895C11.889 3.57895 13.8245 5.58316 13.8245 8.05263C13.8245 8.63421 13.7121 9.18 13.5134 9.69L16.0364 12.3026C17.3411 11.1753 18.3693 9.71684 19 8.05263C17.5052 4.12474 13.8158 1.34211 9.49568 1.34211C8.28604 1.34211 7.12824 1.56579 6.05684 1.96842L7.92315 3.90105C8.41564 3.69526 8.9427 3.57895 9.50432 3.57895ZM0.864029 1.13632L2.83402 3.17632L3.23147 3.58789C1.79718 4.74211 0.673943 6.28105 0 8.05263C1.49477 11.9805 5.18417 14.7632 9.50432 14.7632C10.8436 14.7632 12.1223 14.4947 13.2888 14.0116L13.6517 14.3874L16.1833 17L17.2806 15.8637L1.96135 0L0.864029 1.13632ZM5.64211 6.08421L6.98136 7.47105C6.93815 7.65895 6.91223 7.85579 6.91223 8.05263C6.91223 9.53789 8.07003 10.7368 9.50432 10.7368C9.69441 10.7368 9.88449 10.71 10.0659 10.6653L11.4052 12.0521C10.8263 12.3474 10.1869 12.5263 9.50432 12.5263C7.1196 12.5263 5.18417 10.5221 5.18417 8.05263C5.18417 7.34579 5.35698 6.68368 5.64211 6.08421ZM9.36608 5.38632L12.0878 8.20474L12.105 8.06158C12.105 6.57632 10.9472 5.37737 9.51296 5.37737L9.36608 5.38632Z" fill="black"/>
</svg>
