<svg width="20" height="18" viewBox="0 0 20 18" fill="none" xmlns="http://www.w3.org/2000/svg">
<path d="M18.9474 15V16C18.9474 17.1 18 18 16.8421 18H2.10526C0.936842 18 0 17.1 0 16V2C0 0.9 0.936842 0 2.10526 0H16.8421C18 0 18.9474 0.9 18.9474 2V3H9.47368C8.30526 3 7.36842 3.9 7.36842 5V13C7.36842 14.1 8.30526 15 9.47368 15H18.9474ZM9.47368 13H20V5H9.47368V13ZM13.6842 10.5C12.8105 10.5 12.1053 9.83 12.1053 9C12.1053 8.17 12.8105 7.5 13.6842 7.5C14.5579 7.5 15.2632 8.17 15.2632 9C15.2632 9.83 14.5579 10.5 13.6842 10.5Z" fill="black"/>
</svg>
